<svg width="32" height="35" viewBox="0 0 32 35" xmlns="http://www.w3.org/2000/svg"><title>ico-feature-graph</title><path d="M1 26.76a1 1 0 0 0-1 1v6.238a1 1 0 1 0 2 0v-6.237a1 1 0 0 0-1-1.001zm5-14.664a1 1 0 0 0-1 1V34a1 1 0 1 0 2 0V13.097a1 1 0 0 0-1-1.001zm5 8.426a1 1 0 0 0-1 1V34a1 1 0 1 0 2 0V21.523a1 1 0 0 0-1-1.001zM16 0a1 1 0 0 0-1 1.001V34a1 1 0 1 0 2 0V1a1 1 0 0 0-1-1zm5 6.34a1 1 0 0 0-1 1V34a1 1 0 1 0 2 0V7.34a1 1 0 0 0-1-1.001zM26 0a1 1 0 0 0-1 1.001V34a1 1 0 1 0 2 0V1a1 1 0 0 0-1-1zm5 10.761a1 1 0 0 0-1 1.001V34a1 1 0 1 0 2 0V11.762a1 1 0 0 0-1-1z" fill="#DDD" fill-rule="evenodd"/></svg>