<svg width="34" height="34" viewBox="0 0 34 34" xmlns="http://www.w3.org/2000/svg"><title>Icon</title><path d="M25.186 25.12A26.328 26.328 0 0 0 26.469 18h5.48a14.916 14.916 0 0 1-3.697 8.887c-.977-.685-2-1.277-3.066-1.767zm-.705 1.881a17.61 17.61 0 0 1 2.333 1.316 14.99 14.99 0 0 1-4.487 2.688 23.47 23.47 0 0 0 2.154-4.004zM9.745 26.89a23.36 23.36 0 0 0 2.287 4.247 15.001 15.001 0 0 1-4.847-2.82 17.716 17.716 0 0 1 2.56-1.427zM9.654 7.062A17.536 17.536 0 0 1 7.189 5.68a14.996 14.996 0 0 1 4.64-2.742 23.218 23.218 0 0 0-2.175 4.124zm14.92-.109a23.243 23.243 0 0 0-2.046-3.884 15.002 15.002 0 0 1 4.282 2.61c-.719.481-1.465.907-2.236 1.274zM17.982 16v-5.372a19.559 19.559 0 0 0 5.405-1.027A24.362 24.362 0 0 1 24.479 16h-6.497zm0 2h6.487a24.325 24.325 0 0 1-1.139 6.37 19.564 19.564 0 0 0-5.348-.997V18zm-2 0v5.375a19.535 19.535 0 0 0-5.063.921A24.323 24.323 0 0 1 9.803 18h6.179zm0-2H9.793a24.34 24.34 0 0 1 1.065-6.31 19.59 19.59 0 0 0 5.124.936V16zm15.967 0H26.48a26.258 26.258 0 0 0-1.217-7.162 19.787 19.787 0 0 0 2.99-1.723A14.915 14.915 0 0 1 31.949 16zM19.412 2.213c1.356 1.607 2.46 3.475 3.296 5.507-1.515.517-3.1.819-4.726.908V2.05c.484.031.96.086 1.43.163zm-3.43-.161v6.574a17.554 17.554 0 0 1-4.451-.823c.848-2.084 1.975-3.999 3.366-5.638.358-.05.719-.089 1.085-.113zM5.748 7.114a19.602 19.602 0 0 0 3.226 1.838A26.323 26.323 0 0 0 7.792 16H2.05a14.918 14.918 0 0 1 3.698-8.886zM2.05 18h5.754a26.3 26.3 0 0 0 1.246 7.005 19.551 19.551 0 0 0-3.302 1.882A14.923 14.923 0 0 1 2.05 18zm13.059 13.868c-1.447-1.645-2.617-3.579-3.5-5.692a17.569 17.569 0 0 1 4.373-.801v6.574c-.293-.02-.584-.045-.873-.081zm2.873.082v-6.577c1.6.087 3.161.375 4.651.876-.871 2.064-2.019 3.955-3.431 5.571-.402.06-.808.104-1.22.13zm11.281-3.196C32.191 25.7 34 21.565 34 17 34 8.647 27.971 1.717 20.031.285l-.026-.004A17.1 17.1 0 0 0 17 0C7.611 0 0 7.611 0 17a16.93 16.93 0 0 0 4.769 11.79c.011.016.013.035.025.051.028.036.068.055.1.086A16.943 16.943 0 0 0 17 34c4.719 0 8.987-1.925 12.068-5.031.048-.042.107-.067.148-.12.023-.029.028-.064.047-.095z" fill="#DDD" fill-rule="evenodd"/></svg>