<svg width="64" height="65" viewBox="0 0 64 65" xmlns="http://www.w3.org/2000/svg"><title>how-hospital</title><g fill="none" fill-rule="evenodd"><path d="M47 24.375v-7.11H17v7.11H1v39.61h62v-39.61z" fill="#EDF2F8"/><path d="M29 55.86h6v8.124h-6z" fill="#C2CDDC"/><path d="M22 1.016h20v16.25H22z" fill="#FFF"/><path d="M43 38.594h-4v4.062h4v-4.062zm0-8.125h-4v4.062h4V30.47zm-29 0h-4v4.062h4V30.47zm29-8.125h-4v4.062h4v-4.062zm-6 16.25h-4v4.062h4v-4.062zm0-8.125h-4v4.062h4V30.47zm-23 16.25h-4v4.062h4V46.72zm23-24.375h-4v4.062h4v-4.062zm6 24.375h-4v4.062h4V46.72zM8 38.594H4v4.062h4v-4.062zm0-8.125H4v4.062h4V30.47zm6 24.375h-4v4.062h4v-4.062zm0-16.25h-4v4.062h4v-4.062zm-6 8.125H4v4.062h4V46.72zM36 8.125h-3V5.078c0-.562-.447-1.016-1-1.016-.553 0-1 .454-1 1.016v3.047h-3c-.553 0-1 .454-1 1.016 0 .56.447 1.015 1 1.015h3v3.047c0 .562.447 1.016 1 1.016.553 0 1-.454 1-1.016v-3.047h3c.553 0 1-.455 1-1.015 0-.562-.447-1.016-1-1.016zM8 54.844H4v4.062h4v-4.062zm23-32.5h-4v4.062h4v-4.062zm29 24.375h-4v4.062h4V46.72zm0 8.125h-4v4.062h4v-4.062zm-6-24.375h-4v4.062h4V30.47zm-17 16.25h-4v4.062h4V46.72zm17 0h-4v4.062h4V46.72zm8-23.36H48v-5.078c0-1.121-.896-2.031-2-2.031h-3V2.031C43 .91 42.104 0 41 0H23c-1.104 0-2 .91-2 2.031V16.25h-3c-1.104 0-2 .91-2 2.031v5.078H2c-1.104 0-2 .91-2 2.032v37.578C0 64.09.896 65 2 65h60c1.104 0 2-.91 2-2.031V25.39c0-1.122-.896-2.032-2-2.032zM16 62.97H2V25.39h14v37.578zm7-60.94h18v14.22H23V2.031zm11 60.94h-4v-6.094h4v6.094zm12 0H36v-8.125h-8v8.125H18V18.28h28v44.69zm16 0H48V25.39h14v37.578zm-8-8.125h-4v4.062h4v-4.062zm0-16.25h-4v4.062h4v-4.062zm6-8.125h-4v4.062h4V30.47zm0 8.125h-4v4.062h4v-4.062zm-35-16.25h-4v4.062h4v-4.062zm0 24.375h-4v4.062h4V46.72zm6 0h-4v4.062h4V46.72zm0-16.25h-4v4.062h4V30.47zm0 8.125h-4v4.062h4v-4.062zm-6 0h-4v4.062h4v-4.062zm0-8.125h-4v4.062h4V30.47z" fill="#8592A5"/></g></svg>