<svg width="64" height="64" viewBox="0 0 64 64" xmlns="http://www.w3.org/2000/svg"><title>how-medical-file</title><g fill="none" fill-rule="evenodd"><path d="M57 15h4v6h-4z" fill="#C2CDDC"/><path d="M60 14H14a2 2 0 0 0-2 2h48v4h2v-4a2 2 0 0 0-2-2z" fill="#8592A5"/><path d="M7 0h50v20H7z" fill="#FFF"/><path d="M18.125 21L16 15H1v48h62V21z" fill="#EDF2F8"/><circle cx="14" cy="14" r="14" transform="translate(18 26)" fill="#FFF"/><path d="M35 37v-5h-6v5h-5v6h5v5h6v-5h5v-6z" fill="#C2CDDC"/><path d="M51 15a1 1 0 0 0 1-1V7a1 1 0 1 0-2 0v7a1 1 0 0 0 1 1zM4 59a1 1 0 0 0 1 1h54a1 1 0 1 0 0-2H5a1 1 0 0 0-1 1zm21-15h3v3a2 2 0 0 0 2 2h4a2 2 0 0 0 2-2v-3h3a2 2 0 0 0 2-2v-4a2 2 0 0 0-2-2h-3v-3a2 2 0 0 0-2-2h-4a2 2 0 0 0-2 2v3h-3a2 2 0 0 0-2 2v4a2 2 0 0 0 2 2zm0-6h5v-5h4v5h5v4h-5v5h-4v-5h-5v-4zm37-18h-4V2a2 2 0 0 0-2-2H8a2 2 0 0 0-2 2v12H2a2 2 0 0 0-2 2v46a2 2 0 0 0 2 2h60a2 2 0 0 0 2-2V22a2 2 0 0 0-2-2zM8 2h48v18H46V7a1 1 0 1 0-2 0v13H27V7a1 1 0 1 0-2 0v13h-4V7a1 1 0 1 0-2 0v13l-1-4c-.25-1.167-.896-2-2-2h-1V7a1 1 0 1 0-2 0v7H8V2zm54 60H2V16h13.813l1.75 6H62v40zm-30-7c8.284 0 15-6.716 15-15 0-8.284-6.716-15-15-15-8.284 0-15 6.716-15 15 0 8.284 6.716 15 15 15zm0-28c7.18 0 13 5.82 13 13s-5.82 13-13 13-13-5.82-13-13 5.82-13 13-13z" fill="#8592A5"/></g></svg>