<svg width="46" height="64" viewBox="0 0 46 64" xmlns="http://www.w3.org/2000/svg"><title>swipe right</title><g fill="none" fill-rule="evenodd"><path d="M3 1v8h30V1H3zm0 54h30V45H3v10z" fill="#C2CDDC"/><path d="M3 9h30v36H3z" fill="#EDF2F8"/><path d="M15 6h6a1 1 0 0 0 0-2h-6a1 1 0 1 0 0 2zm30.912 11.608a1.023 1.023 0 0 0-.237-.394l-2.921-2.921a1.033 1.033 0 0 0-1.46 1.46L42.54 17H34V2a2 2 0 0 0-2-2H4a2 2 0 0 0-2 2v52a2 2 0 0 0 2 2h28a2 2 0 0 0 2-2V19h8.53l-1.234 1.234a1.041 1.041 0 0 0 0 1.47 1.041 1.041 0 0 0 1.47 0l2.938-2.938c.314-.315.379-.776.208-1.158zM32 54H4v-8h28v8zm0-37h-7a1 1 0 1 0 0 2h7v25H4V10h28v7zm0-9H4V2h28v6z" fill="#8592A5"/><path d="M41 38h-.051c-.231-1.141-1.271-1.727-2.449-2-1.436-.333-3.064 2-3.5 1-.585-1.342-2.131-2.946-3.5-3-1.499-.059-1.752.757-3.5 1-1.532-1.572-1.558-3-4-3-.777 0-1.479.523-2.011 1.242 0 0-1.989-.735-1.989-4.242V17.5a2.5 2.5 0 1 0-5 0v25.333c0 1.076-3.822 5.287-7-2.833-.406-1.037-1.252-2.105-2-3-1.572-1.881-5.654-1.091-4 2 4.45 8.313 12 23 12 23 1.083 1.25 2.119 1 3.5 1H35s2.63-1.597 5-11c1.53-6.071 1-14 1-14z" fill="#FFF"/><path d="M38.5 35c-.679 0-1.308.201-1.844.536 0 0-.611.561-1.08.461-.498-.104-.856-.869-.856-.869A3.501 3.501 0 0 0 31.5 33c-.922 0-1.755.363-2.38.946 0 0-.395.242-.713.175-.293-.062-.512-.433-.512-.433A3.493 3.493 0 0 0 24.5 31c-.98 0-1.864.405-2.5 1.056-.587-.546-1.001-1.341-1-2.056V17.5a3.5 3.5 0 1 0-7 0V42c.093 1.186-.547 2.377-2 2-.536-.139-1.049-.331-1.347-.793-1.237-1.913-2.103-5.384-3.947-7.018-1.999-1.772-4.459-1.463-6.393-.003a.78.78 0 0 0-.252.931L12.97 62.715c.928 1.275 2.477 1.275 3.011 1.275L35 64c1.01 0 1.495-.578 2.161-1.574 0 0 3.981-7.737 4.714-15.99.079 0 .125-.119.125-.436v-7.5a3.5 3.5 0 0 0-3.5-3.5zM40 45s-.04 4.021-2.253 11.118C36.811 59.122 35 62 35 62H15.5s-.845-.082-1.852-2.087C10.236 53.122 2.667 38 2.667 38s-.276-.319-.303-.531c-.055-.45 1.271-.723 2.386-.177 2.159 1.057 2.683 4.684 4.253 6.779C11.347 47.199 16 46.302 16 42V17.5a1.5 1.5 0 0 1 3 0V29c0 2.76 1.668 4.742 2.694 4.971.401.089.837-.033.837-.033 1.188-.928 1.479-.969 2.031-.969 1.859 0 1.39 2.329 3.266 2.788.95.231 1.443.22 2.077-.004.858-.303.88-.992 2.095-.753 1.309.258 1.568 2.604 3 2.875.753.143 1.2.059 1.771-.114.672-.204 1.06-1.042 2.229-.761.537.129 1 .666 1 1.219V45z" fill="#8592A5"/></g></svg>