<svg width="34" height="15" viewBox="0 0 34 15" xmlns="http://www.w3.org/2000/svg"><title>ico-feature-infinity</title><path d="M30.403 11.356a.816.816 0 0 0-.052.047l-.024.025a5.636 5.636 0 0 1-3.959 1.602 5.628 5.628 0 0 1-4.018-1.662L18.417 7.5l3.943-3.878a.227.227 0 0 0 .022-.022 5.633 5.633 0 0 1 3.987-1.63 5.65 5.65 0 0 1 3.996 1.64c2.148 2.114 2.181 5.533.038 7.746zm-18.75.011a5.636 5.636 0 0 1-4.02 1.663 5.631 5.631 0 0 1-3.957-1.601l-.051-.052a5.445 5.445 0 0 1 0-7.756c.008-.006.014-.013.021-.021a5.635 5.635 0 0 1 3.988-1.63 5.65 5.65 0 0 1 3.995 1.64l3.956 3.89-3.932 3.867zm20.107-9.17A7.64 7.64 0 0 0 26.368 0a7.64 7.64 0 0 0-5.391 2.196l-.011.011-.01.01L17 6.107l-3.977-3.91A7.639 7.639 0 0 0 7.634 0C5.597 0 3.68.78 2.24 2.196l-.01.01-.011.011a7.396 7.396 0 0 0 .007 10.573l.007.007.007.007A7.642 7.642 0 0 0 7.634 15c2.03 0 3.94-.776 5.378-2.185l.027-.025 3.962-3.897 3.964 3.899c0 .002.003.003.005.005l.007.007A7.641 7.641 0 0 0 26.368 15a7.64 7.64 0 0 0 5.392-2.196v-.001l.021-.02a7.398 7.398 0 0 0-.021-10.587z" fill="#DDD" fill-rule="evenodd"/></svg>