<svg width="38" height="23" viewBox="0 0 38 23" xmlns="http://www.w3.org/2000/svg"><title>ico-feature-cloud</title><path d="M29.6 21.034H7.565c-3.083 0-5.591-2.499-5.591-5.57 0-3.07 2.508-5.569 5.59-5.569a5.59 5.59 0 0 1 2.91.821.985.985 0 1 0 1.5-.901l-.007-.111a4.984 4.984 0 0 1-.018-.366c0-4.065 3.32-7.372 7.4-7.372a7.346 7.346 0 0 1 6.972 4.965c-3.007 1.274-5.121 4.246-5.121 7.701 0 .544.442.983.987.983.546 0 .987-.44.987-.983 0-3.53 2.882-6.4 6.426-6.4 3.543 0 6.426 2.87 6.426 6.4 0 3.53-2.883 6.402-6.426 6.402m0-14.768c-.462 0-.912.047-1.354.12C26.985 2.585 23.44 0 19.35 0c-4.831 0-8.822 3.66-9.321 8.344a7.547 7.547 0 0 0-2.464-.415C3.393 7.93 0 11.31 0 15.465S3.393 23 7.565 23H29.6c4.631 0 8.4-3.753 8.4-8.368 0-4.613-3.769-8.366-8.4-8.366" fill="#DDD" fill-rule="evenodd"/></svg>