<?xml version="1.0" encoding="UTF-8" standalone="no"?>
<svg width="46px" height="64px" viewBox="0 0 46 64" version="1.1" xmlns="http://www.w3.org/2000/svg" xmlns:xlink="http://www.w3.org/1999/xlink">
    <!-- Generator: Sketch 41.2 (35397) - http://www.bohemiancoding.com/sketch -->
    <title>swipe right</title>
    <desc>Created with Sketch.</desc>
    <defs></defs>
    <g id="Landing-Page-1" stroke="none" stroke-width="1" fill="none" fill-rule="evenodd">
        <g id="Mlocum---Doctors---Homepage" transform="translate(-1093.000000, -1686.000000)">
            <g id="swipe-right" transform="translate(1092.000000, 1686.000000)">
                <g id="Layer_1">
                    <g id="Rectangle_45_copy" transform="translate(4.000000, 1.000000)" fill="#C2CDDC">
                        <path d="M0,0 L0,8 L30,8 L30,0 L0,0 Z M0,54 L30,54 L30,44 L0,44 L0,54 Z" id="Shape"></path>
                    </g>
                    <g id="Rectangle_48" transform="translate(4.000000, 9.000000)" fill="#EDF2F8">
                        <rect id="Rectangle-path" x="0" y="0" width="30" height="36"></rect>
                    </g>
                    <g id="Rounded_Rectangle_45_copy" transform="translate(3.000000, 0.000000)" fill="#8592A5">
                        <path d="M13,6 L19,6 C19.552,6 20,5.552 20,5 C20,4.447 19.552,4 19,4 L13,4 C12.447,4 12,4.447 12,5 C12,5.552 12.447,6 13,6 Z M43.912,17.608 C43.862,17.464 43.789,17.329 43.675,17.214 L40.754,14.293 C40.352,13.89 39.697,13.89 39.294,14.293 C38.891,14.696 38.891,15.351 39.294,15.753 L40.54,17 L32,17 L32,2 C32,0.896 31.104,0 30,0 L2,0 C0.896,0 0,0.896 0,2 L0,54 C0,55.104 0.896,56 2,56 L30,56 C31.104,56 32,55.104 32,54 L32,19 L40.53,19 L39.296,20.234 C38.891,20.64 38.891,21.297 39.296,21.704 C39.702,22.109 40.359,22.109 40.766,21.704 L43.704,18.766 C44.018,18.451 44.083,17.99 43.912,17.608 Z M30,54 L2,54 L2,46 L30,46 L30,54 Z M30,17 L23,17 C22.447,17 22,17.447 22,18 C22,18.553 22.447,19 23,19 L30,19 L30,44 L2,44 L2,10 L30,10 L30,17 Z M30,8 L2,8 L2,2 L30,2 L30,8 Z" id="Shape"></path>
                    </g>
                    <g id="Ellipse_89_copy" transform="translate(2.000000, 15.000000)" fill="#FFFFFF">
                        <path d="M40,23 L39.949,23 C39.718,21.859 38.678,21.273 37.5,21 C36.064,20.667 34.436,23 34,22 C33.415,20.658 31.869,19.054 30.5,19 C29.001,18.941 28.748,19.757 27,20 C25.468,18.428 25.442,17 23,17 C22.223,17 21.521,17.523 20.989,18.242 C20.989,18.242 19,17.507 19,14 L19,2.5 C19,1.119 17.881,3.55271368e-15 16.5,3.55271368e-15 C15.119,3.55271368e-15 14,1.119 14,2.5 L14,27.833 C14,28.909 10.178,33.12 7,25 C6.594,23.963 5.748,22.895 5,22 C3.428,20.119 -0.654,20.909 1,24 C5.45,32.313 13,47 13,47 C14.083,48.25 15.119,48 16.5,48 L34,48 C34,48 36.63,46.403 39,37 C40.53,30.929 40,23 40,23 Z" id="Shape"></path>
                    </g>
                    <g id="hand_copy" transform="translate(0.000000, 14.000000)" fill="#8592A5">
                        <path d="M39.5,21 C38.821,21 38.192,21.201 37.656,21.536 C37.656,21.536 37.045,22.097 36.576,21.997 C36.078,21.893 35.72,21.128 35.72,21.128 C35.186,19.877 33.945,19 32.5,19 C31.578,19 30.745,19.363 30.12,19.946 C30.12,19.946 29.725,20.188 29.407,20.121 C29.114,20.059 28.895,19.688 28.895,19.688 C28.528,18.148 27.152,17 25.5,17 C24.52,17 23.636,17.405 23,18.056 C22.413,17.51 21.999,16.715 22,16 L22,3.5 C22,1.566 20.433,0 18.5,0 C16.566,0 15,1.566 15,3.5 L15,28 C15.093,29.186 14.453,30.377 13,30 C12.464,29.861 11.951,29.669 11.653,29.207 C10.416,27.294 9.55,23.823 7.706,22.189 C5.707,20.417 3.247,20.726 1.313,22.186 C1.025,22.404 0.918,22.787 1.061,23.117 L13.97,48.715 C14.898,49.99 16.447,49.99 16.981,49.99 L36,50 C37.01,50 37.495,49.422 38.161,48.426 C38.161,48.426 42.142,40.689 42.875,32.436 C42.954,32.436 43,32.317 43,32 L43,24.5 C43,22.566 41.433,21 39.5,21 Z M41,31 C41,31 40.96,35.021 38.747,42.118 C37.811,45.122 36,48 36,48 L16.5,48 C16.5,48 15.655,47.918 14.648,45.913 C11.236,39.122 3.667,24 3.667,24 C3.667,24 3.391,23.681 3.364,23.469 C3.309,23.019 4.635,22.746 5.75,23.292 C7.909,24.349 8.433,27.976 10.003,30.071 C12.347,33.199 17,32.302 17,28 L17,22 L17,3.5 C17,2.672 17.672,2 18.5,2 C19.328,2 20,2.672 20,3.5 L20,15 C20,17.76 21.668,19.742 22.694,19.971 C23.095,20.06 23.531,19.938 23.531,19.938 C24.719,19.01 25.01,18.969 25.562,18.969 C27.421,18.969 26.952,21.298 28.828,21.757 C29.778,21.988 30.271,21.977 30.905,21.753 C31.763,21.45 31.785,20.761 33,21 C34.309,21.258 34.568,23.604 36,23.875 C36.753,24.018 37.2,23.934 37.771,23.761 C38.443,23.557 38.831,22.719 40,23 C40.537,23.129 41,23.666 41,24.219 L41,31 Z" id="Shape"></path>
                    </g>
                </g>
            </g>
        </g>
    </g>
</svg>