<?xml version="1.0" encoding="UTF-8" standalone="no"?>
<svg width="64px" height="64px" viewBox="0 0 64 64" version="1.1" xmlns="http://www.w3.org/2000/svg" xmlns:xlink="http://www.w3.org/1999/xlink">
    <!-- Generator: Sketch 41.2 (35397) - http://www.bohemiancoding.com/sketch -->
    <title>how-medical-file</title>
    <desc>Created with Sketch.</desc>
    <defs></defs>
    <g id="Landing-Page-1" stroke="none" stroke-width="1" fill="none" fill-rule="evenodd">
        <g id="Mlocum---Doctors---Homepage" transform="translate(-298.000000, -1680.000000)">
            <g id="Groups" transform="translate(0.000000, -3.000000)">
                <g id="Features-#3" transform="translate(0.000000, 1447.000000)">
                    <g id="how-medical-file" transform="translate(298.000000, 236.000000)">
                        <g id="Rectangle_68" transform="translate(57.000000, 15.000000)" fill="#C2CDDC">
                            <rect id="Rectangle-path" x="0" y="0" width="4" height="6"></rect>
                        </g>
                        <g id="Rectangle_65" transform="translate(12.000000, 14.000000)" fill="#8592A5">
                            <path d="M48,0 L2,0 C0.896,0 0,0.896 0,2 L48,2 L48,6 L50,6 L50,2 C50,0.896 49.104,0 48,0 Z" id="Shape"></path>
                        </g>
                        <g id="Rectangle_64" transform="translate(7.000000, 0.000000)" fill="#FFFFFF">
                            <rect id="Rectangle-path" x="0" y="0" width="50" height="20"></rect>
                        </g>
                        <g id="Rectangle_67" transform="translate(1.000000, 15.000000)" fill="#EDF2F8">
                            <polygon id="Shape" points="17.125 6 15 0 0 0 0 48 62 48 62 6"></polygon>
                        </g>
                        <g id="Ellipse_24" transform="translate(18.000000, 26.000000)" fill="#FFFFFF">
                            <circle id="Oval" cx="14" cy="14" r="14"></circle>
                        </g>
                        <g id="Rectangle_66" transform="translate(24.000000, 32.000000)" fill="#C2CDDC">
                            <polygon id="Shape" points="11 5 11 0 5 0 5 5 0 5 0 11 5 11 5 16 11 16 11 11 16 11 16 5"></polygon>
                        </g>
                        <g id="Rectangle_63" fill="#8592A5">
                            <path d="M51,15 C51.553,15 52,14.553 52,14 L52,7 C52,6.447 51.553,6 51,6 C50.447,6 50,6.447 50,7 L50,14 C50,14.553 50.447,15 51,15 Z M4,59 C4,59.553 4.447,60 5,60 L59,60 C59.553,60 60,59.553 60,59 C60,58.447 59.553,58 59,58 L5,58 C4.447,58 4,58.447 4,59 Z M25,44 L28,44 L28,47 C28,48.104 28.896,49 30,49 L34,49 C35.104,49 36,48.104 36,47 L36,44 L39,44 C40.104,44 41,43.104 41,42 L41,38 C41,36.896 40.104,36 39,36 L36,36 L36,33 C36,31.896 35.104,31 34,31 L30,31 C28.896,31 28,31.896 28,33 L28,36 L25,36 C23.896,36 23,36.896 23,38 L23,42 C23,43.104 23.896,44 25,44 Z M25,38 L30,38 L30,33 L34,33 L34,38 L39,38 L39,42 L34,42 L34,47 L30,47 L30,42 L25,42 L25,38 Z M62,20 L58,20 L58,2 C58,0.896 57.104,0 56,0 L8,0 C6.896,0 6,0.896 6,2 L6,14 L2,14 C0.896,14 0,14.896 0,16 L0,62 C0,63.104 0.896,64 2,64 L62,64 C63.104,64 64,63.104 64,62 L64,22 C64,20.896 63.104,20 62,20 Z M8,2 L56,2 L56,20 L46,20 L46,7 C46,6.447 45.553,6 45,6 C44.447,6 44,6.447 44,7 L44,20 L27,20 L27,7 C27,6.447 26.553,6 26,6 C25.447,6 25,6.447 25,7 L25,20 L21,20 L21,7 C21,6.447 20.553,6 20,6 C19.447,6 19,6.447 19,7 L19,20 L18,16 C17.75,14.833 17.104,14 16,14 L15,14 L15,7 C15,6.447 14.553,6 14,6 C13.447,6 13,6.447 13,7 L13,14 L8,14 L8,2 Z M62,62 L2,62 L2,16 L15.813,16 L17.563,22 L62,22 L62,62 Z M32,55 C40.284,55 47,48.284 47,40 C47,31.716 40.284,25 32,25 C23.716,25 17,31.716 17,40 C17,48.284 23.716,55 32,55 Z M32,27 C39.18,27 45,32.82 45,40 C45,47.18 39.18,53 32,53 C24.82,53 19,47.18 19,40 C19,32.82 24.82,27 32,27 Z" id="Shape"></path>
                        </g>
                    </g>
                </g>
            </g>
        </g>
    </g>
</svg>