<?xml version="1.0" encoding="UTF-8" standalone="no"?>
<svg width="64px" height="65px" viewBox="0 0 64 65" version="1.1" xmlns="http://www.w3.org/2000/svg" xmlns:xlink="http://www.w3.org/1999/xlink">
    <!-- Generator: Sketch 41.2 (35397) - http://www.bohemiancoding.com/sketch -->
    <title>how-hospital</title>
    <desc>Created with Sketch.</desc>
    <defs></defs>
    <g id="Landing-Page-1" stroke="none" stroke-width="1" fill="none" fill-rule="evenodd">
        <g id="Mlocum---Doctors---Homepage" transform="translate(-691.000000, -1677.000000)">
            <g id="how-hospital" transform="translate(691.000000, 1677.000000)">
                <g id="Layer_1">
                    <g id="Rectangle_17" transform="translate(1.000000, 17.265625)" fill="#EDF2F8">
                        <polygon id="Shape" points="46 7.109375 46 0 16 0 16 7.109375 0 7.109375 0 46.71875 62 46.71875 62 7.109375"></polygon>
                    </g>
                    <g id="Rectangle_20" transform="translate(29.000000, 55.859375)" fill="#C2CDDC">
                        <rect id="Rectangle-path" x="0" y="0" width="6" height="8.125"></rect>
                    </g>
                    <g id="Rectangle_21" transform="translate(22.000000, 1.015625)" fill="#FFFFFF">
                        <rect id="Rectangle-path" x="0" y="0" width="20" height="16.25"></rect>
                    </g>
                    <g id="Rectangle_16" fill="#8592A5">
                        <path d="M43,38.59375 L39,38.59375 L39,42.65625 L43,42.65625 L43,38.59375 Z M43,30.46875 L39,30.46875 L39,34.53125 L43,34.53125 L43,30.46875 Z M14,30.46875 L10,30.46875 L10,34.53125 L14,34.53125 L14,30.46875 Z M43,22.34375 L39,22.34375 L39,26.40625 L43,26.40625 L43,22.34375 Z M37,38.59375 L33,38.59375 L33,42.65625 L37,42.65625 L37,38.59375 Z M37,30.46875 L33,30.46875 L33,34.53125 L37,34.53125 L37,30.46875 Z M14,46.71875 L10,46.71875 L10,50.78125 L14,50.78125 L14,46.71875 Z M37,22.34375 L33,22.34375 L33,26.40625 L37,26.40625 L37,22.34375 Z M43,46.71875 L39,46.71875 L39,50.78125 L43,50.78125 L43,46.71875 Z M8,38.59375 L4,38.59375 L4,42.65625 L8,42.65625 L8,38.59375 Z M8,30.46875 L4,30.46875 L4,34.53125 L8,34.53125 L8,30.46875 Z M14,54.84375 L10,54.84375 L10,58.90625 L14,58.90625 L14,54.84375 Z M14,38.59375 L10,38.59375 L10,42.65625 L14,42.65625 L14,38.59375 Z M8,46.71875 L4,46.71875 L4,50.78125 L8,50.78125 L8,46.71875 Z M36,8.125 L33,8.125 L33,5.078125 C33,4.51648438 32.553,4.0625 32,4.0625 C31.447,4.0625 31,4.51648438 31,5.078125 L31,8.125 L28,8.125 C27.447,8.125 27,8.57898437 27,9.140625 C27,9.70125 27.447,10.15625 28,10.15625 L31,10.15625 L31,13.203125 C31,13.7647656 31.447,14.21875 32,14.21875 C32.553,14.21875 33,13.7647656 33,13.203125 L33,10.15625 L36,10.15625 C36.553,10.15625 37,9.70125 37,9.140625 C37,8.57898437 36.553,8.125 36,8.125 Z M8,54.84375 L4,54.84375 L4,58.90625 L8,58.90625 L8,54.84375 Z M31,22.34375 L27,22.34375 L27,26.40625 L31,26.40625 L31,22.34375 Z M60,46.71875 L56,46.71875 L56,50.78125 L60,50.78125 L60,46.71875 Z M60,54.84375 L56,54.84375 L56,58.90625 L60,58.90625 L60,54.84375 Z M54,30.46875 L50,30.46875 L50,34.53125 L54,34.53125 L54,30.46875 Z M37,46.71875 L33,46.71875 L33,50.78125 L37,50.78125 L37,46.71875 Z M54,46.71875 L50,46.71875 L50,50.78125 L54,50.78125 L54,46.71875 Z M62,23.359375 L48,23.359375 L48,18.28125 C48,17.16 47.104,16.25 46,16.25 L43,16.25 L43,2.03125 C43,0.91 42.104,0 41,0 L23,0 C21.896,0 21,0.91 21,2.03125 L21,16.25 L18,16.25 C16.896,16.25 16,17.16 16,18.28125 L16,23.359375 L2,23.359375 C0.896,23.359375 0,24.269375 0,25.390625 L0,62.96875 C0,64.09 0.896,65 2,65 L62,65 C63.104,65 64,64.09 64,62.96875 L64,25.390625 C64,24.269375 63.104,23.359375 62,23.359375 Z M16,62.96875 L2,62.96875 L2,25.390625 L16,25.390625 L16,62.96875 Z M23,2.03125 L41,2.03125 L41,16.25 L23,16.25 L23,2.03125 Z M34,62.96875 L30,62.96875 L30,56.875 L34,56.875 L34,62.96875 Z M46,62.96875 L36,62.96875 L36,54.84375 L28,54.84375 L28,62.96875 L18,62.96875 L18,18.28125 L46,18.28125 L46,62.96875 Z M62,62.96875 L48,62.96875 L48,25.390625 L62,25.390625 L62,62.96875 Z M54,54.84375 L50,54.84375 L50,58.90625 L54,58.90625 L54,54.84375 Z M54,38.59375 L50,38.59375 L50,42.65625 L54,42.65625 L54,38.59375 Z M60,30.46875 L56,30.46875 L56,34.53125 L60,34.53125 L60,30.46875 Z M60,38.59375 L56,38.59375 L56,42.65625 L60,42.65625 L60,38.59375 Z M25,22.34375 L21,22.34375 L21,26.40625 L25,26.40625 L25,22.34375 Z M25,46.71875 L21,46.71875 L21,50.78125 L25,50.78125 L25,46.71875 Z M31,46.71875 L27,46.71875 L27,50.78125 L31,50.78125 L31,46.71875 Z M31,30.46875 L27,30.46875 L27,34.53125 L31,34.53125 L31,30.46875 Z M31,38.59375 L27,38.59375 L27,42.65625 L31,42.65625 L31,38.59375 Z M25,38.59375 L21,38.59375 L21,42.65625 L25,42.65625 L25,38.59375 Z M25,30.46875 L21,30.46875 L21,34.53125 L25,34.53125 L25,30.46875 Z" id="Shape"></path>
                    </g>
                </g>
            </g>
        </g>
    </g>
</svg>