<?xml version="1.0" encoding="UTF-8" standalone="no"?>
<svg width="32px" height="35px" viewBox="0 0 32 35" version="1.1" xmlns="http://www.w3.org/2000/svg" xmlns:xlink="http://www.w3.org/1999/xlink">
    <!-- Generator: Sketch 41.2 (35397) - http://www.bohemiancoding.com/sketch -->
    <title>ico-feature-graph</title>
    <desc>Created with Sketch.</desc>
    <defs></defs>
    <g id="Landing-Page-1" stroke="none" stroke-width="1" fill="none" fill-rule="evenodd">
        <g id="Mlocum---Doctors---Homepage" transform="translate(-382.000000, -2632.000000)" fill="#DDDDDD">
            <g id="Groups" transform="translate(0.000000, -3.000000)">
                <g id="Features" transform="translate(0.000000, 2067.000000)">
                    <g id="Rates" transform="translate(163.000000, 568.000000)">
                        <path d="M220,26.7597124 C219.447,26.7597124 219,27.2071841 219,27.7607678 L219,33.998344 C219,34.5519276 219.447,34.9993994 220,34.9993994 C220.553,34.9993994 221,34.5519276 221,33.998344 L221,27.7607678 C221,27.2071841 220.553,26.7597124 220,26.7597124 Z M225,12.0958525 C224.447,12.0958525 224,12.5433242 224,13.0969079 L224,33.9989446 C224,34.5525282 224.447,35 225,35 C225.553,35 226,34.5525282 226,33.9989446 L226,13.0969079 C226,12.5433242 225.553,12.0958525 225,12.0958525 Z M230,20.5216357 C229.447,20.5216357 229,20.9691074 229,21.5226911 L229,33.9988445 C229,34.5524281 229.447,34.9998999 230,34.9998999 C230.553,34.9998999 231,34.5524281 231,33.9988445 L231,21.5226911 C231,20.9691074 230.553,20.5216357 230,20.5216357 Z M235,0 C234.447,0 234,0.447471763 234,1.0010554 L234,33.9988445 C234,34.5524281 234.447,34.9998999 235,34.9998999 C235.553,34.9998999 236,34.5524281 236,33.9988445 L236,1.0010554 C236,0.447471763 235.553,0 235,0 Z M240,6.33978394 C239.447,6.33978394 239,6.78725571 239,7.34083934 L239,33.9989446 C239,34.5525282 239.447,35 240,35 C240.553,35 241,34.5525282 241,33.9989446 L241,7.34083934 C241,6.78725571 240.553,6.33978394 240,6.33978394 Z M245,0 C244.447,0 244,0.447471763 244,1.0010554 L244,33.9988445 C244,34.5524281 244.447,34.9998999 245,34.9998999 C245.553,34.9998999 246,34.5524281 246,33.9988445 L246,1.0010554 C246,0.447471763 245.553,0 245,0 Z M250,10.7613455 C249.447,10.7613455 249,11.2088173 249,11.7624009 L249,33.9988445 C249,34.5524281 249.447,34.9998999 250,34.9998999 C250.553,34.9998999 251,34.5524281 251,33.9988445 L251,11.7624009 C251,11.2088173 250.553,10.7613455 250,10.7613455 Z" id="ico-feature-graph"></path>
                    </g>
                </g>
            </g>
        </g>
    </g>
</svg>