<?xml version="1.0" encoding="UTF-8" standalone="no"?>
<svg width="34px" height="15px" viewBox="0 0 34 15" version="1.1" xmlns="http://www.w3.org/2000/svg" xmlns:xlink="http://www.w3.org/1999/xlink">
    <!-- Generator: Sketch 41.2 (35397) - http://www.bohemiancoding.com/sketch -->
    <title>ico-feature-infinity</title>
    <desc>Created with Sketch.</desc>
    <defs></defs>
    <g id="Landing-Page-1" stroke="none" stroke-width="1" fill="none" fill-rule="evenodd">
        <g id="Mlocum---Doctors---Homepage" transform="translate(-1028.000000, -2852.000000)" fill="#DDDDDD">
            <g id="Groups" transform="translate(0.000000, -3.000000)">
                <g id="Features" transform="translate(0.000000, 2067.000000)">
                    <g id="Alerts" transform="translate(1028.000000, 788.000000)">
                        <path d="M30.4030143,11.3556373 C30.3839873,11.3713967 30.3669632,11.3871561 30.3509404,11.4029155 C30.3419276,11.4117802 30.3349177,11.4186749 30.3269063,11.4275396 C29.2664016,12.4607656 27.8624095,13.0300742 26.3682895,13.0300742 C24.8781752,13.0300742 23.4781887,12.4647055 22.4206883,11.4373892 C22.398657,11.4137501 22.3736215,11.390111 22.3495874,11.3684418 L18.4170075,7.50049248 L22.3596016,3.62170858 C22.367613,3.61481384 22.3746229,3.6079191 22.3816329,3.6000394 C22.3896442,3.59314466 22.3976556,3.58526496 22.4046655,3.57837021 C23.4651703,2.54120428 24.8721666,1.9699258 26.3682895,1.9699258 C27.8704208,1.9699258 29.2824243,2.54514413 30.3649603,3.60988903 C32.5130082,5.72361941 32.546055,9.1434106 30.4030143,11.3556373 L30.4030143,11.3556373 Z M11.6534107,11.3674568 C11.6323808,11.3861711 11.6103496,11.4068553 11.5913226,11.4275396 C10.5308178,12.4607656 9.12682574,13.0300742 7.63370717,13.0300742 C6.13958717,13.0300742 4.73559506,12.4617506 3.67609175,11.4285245 C3.65906759,11.4117802 3.64204343,11.3940508 3.62501928,11.3773065 C1.4609487,9.23599711 1.4609487,5.76301793 3.62501928,3.62072362 C3.63303065,3.61481384 3.63903917,3.6079191 3.64604912,3.6000394 C3.65406049,3.59314466 3.66207185,3.58526496 3.6690818,3.57837021 C4.72958654,2.54120428 6.13758433,1.9699258 7.63370717,1.9699258 C9.1348371,1.9699258 10.5468406,2.54514413 11.6293766,3.60988903 L15.5849892,7.50049248 L11.6534107,11.3674568 Z M31.7599396,2.19646727 C30.3198964,0.780090617 28.4051796,0 26.3682895,0 C24.3324008,0 22.4166826,0.780090617 20.9766393,2.19646727 C20.9726336,2.19942216 20.9696294,2.20336201 20.9656237,2.20730186 L20.9556095,2.21715149 L17.0009983,6.10775494 L13.0243559,2.19646727 C11.5843126,0.780090617 9.66959587,0 7.63370717,0 C5.59681704,0 3.68109885,0.780090617 2.24105559,2.19646727 L2.23104138,2.2063169 C2.22703569,2.21025675 2.22303001,2.21321164 2.22002575,2.21715149 C-0.741175871,5.13067174 -0.741175871,9.86932826 2.22703569,12.7897433 L2.23404564,12.796638 C2.23604848,12.7995929 2.23905275,12.8015628 2.24105559,12.8035327 C3.68109885,14.2199094 5.59681704,15 7.63370717,15 C9.66358734,15 11.573297,14.2238492 13.0123389,12.8153523 C13.0223531,12.8074726 13.0303644,12.7986079 13.0393772,12.7897433 L17.0009983,8.89323002 L20.9646223,12.7917132 C20.9656237,12.7936831 20.9676265,12.7946681 20.9696294,12.796638 L20.9766393,12.8035327 C22.4166826,14.2199094 24.3324008,15 26.3682895,15 C28.4051796,15 30.3198964,14.2199094 31.7599396,12.8035327 C31.7599396,12.8025478 31.7609411,12.8025478 31.7609411,12.8025478 C31.767951,12.795653 31.774961,12.7897433 31.7809695,12.7828485 C34.7431725,9.86932826 34.7431725,5.13067174 31.7599396,2.19646727 L31.7599396,2.19646727 Z" id="ico-feature-infinity"></path>
                    </g>
                </g>
            </g>
        </g>
    </g>
</svg>