<?xml version="1.0" encoding="UTF-8" standalone="no"?>
<svg width="34px" height="34px" viewBox="0 0 34 34" version="1.1" xmlns="http://www.w3.org/2000/svg" xmlns:xlink="http://www.w3.org/1999/xlink">
    <!-- Generator: Sketch 41.2 (35397) - http://www.bohemiancoding.com/sketch -->
    <title>Icon</title>
    <desc>Created with Sketch.</desc>
    <defs></defs>
    <g id="Landing-Page-1" stroke="none" stroke-width="1" fill="none" fill-rule="evenodd">
        <g id="Mlocum---Doctors---Homepage" transform="translate(-1028.000000, -2633.000000)" fill="#DDDDDD">
            <g id="Groups" transform="translate(0.000000, -3.000000)">
                <g id="Features" transform="translate(0.000000, 2067.000000)">
                    <g id="Rewards" transform="translate(1028.000000, 569.000000)">
                        <path d="M25.186,25.12 C25.93,22.859 26.366,20.458 26.469,18 L31.949,18 C31.724,21.395 30.37,24.479 28.252,26.887 C27.275,26.202 26.252,25.61 25.186,25.12 L25.186,25.12 Z M24.481,27.001 C25.286,27.379 26.066,27.815 26.814,28.317 C25.498,29.46 23.983,30.373 22.327,31.005 C23.164,29.761 23.884,28.42 24.481,27.001 L24.481,27.001 Z M9.745,26.89 C10.371,28.4 11.134,29.824 12.032,31.137 C10.235,30.503 8.596,29.542 7.185,28.317 C8.004,27.768 8.859,27.291 9.745,26.89 L9.745,26.89 Z M9.654,7.062 C8.802,6.671 7.978,6.21 7.189,5.68 C8.545,4.503 10.114,3.571 11.829,2.938 C10.973,4.224 10.247,5.604 9.654,7.062 L9.654,7.062 Z M24.574,6.953 C24.009,5.584 23.326,4.286 22.528,3.069 C24.105,3.697 25.548,4.584 26.81,5.679 C26.091,6.16 25.345,6.586 24.574,6.953 L24.574,6.953 Z M17.982,16 L17.982,10.628 C19.842,10.537 21.657,10.195 23.387,9.601 C24.026,11.638 24.399,13.796 24.479,16 L17.982,16 Z M17.982,18 L24.469,18 C24.37,20.2 23.983,22.346 23.33,24.37 C21.619,23.789 19.824,23.463 17.982,23.373 L17.982,18 Z M15.982,18 L15.982,23.375 C14.241,23.462 12.543,23.769 10.919,24.296 C10.28,22.294 9.901,20.174 9.803,18 L15.982,18 Z M15.982,16 L9.793,16 C9.872,13.828 10.235,11.701 10.858,9.69 C12.502,10.229 14.221,10.537 15.982,10.626 L15.982,16 Z M31.949,16 L26.48,16 C26.4,13.509 25.987,11.101 25.263,8.838 C26.301,8.355 27.3,7.781 28.253,7.115 C30.37,9.522 31.724,12.606 31.949,16 L31.949,16 Z M19.412,2.213 C20.768,3.82 21.872,5.688 22.708,7.72 C21.193,8.237 19.608,8.539 17.982,8.628 L17.982,2.05 C18.466,2.081 18.942,2.136 19.412,2.213 L19.412,2.213 Z M15.982,2.052 L15.982,8.626 C14.453,8.54 12.961,8.268 11.531,7.803 C12.379,5.719 13.506,3.804 14.897,2.165 C15.255,2.115 15.616,2.076 15.982,2.052 L15.982,2.052 Z M5.748,7.114 C6.773,7.832 7.85,8.448 8.974,8.952 C8.273,11.182 7.871,13.551 7.792,16 L2.05,16 C2.276,12.605 3.63,9.521 5.748,7.114 L5.748,7.114 Z M2.05,18 L7.804,18 C7.904,20.417 8.329,22.777 9.05,25.005 C7.898,25.515 6.798,26.151 5.748,26.887 C3.63,24.479 2.276,21.395 2.05,18 L2.05,18 Z M15.109,31.868 C13.662,30.223 12.492,28.289 11.609,26.176 C13.015,25.727 14.479,25.459 15.982,25.375 L15.982,31.949 C15.689,31.929 15.398,31.904 15.109,31.868 L15.109,31.868 Z M17.982,31.95 L17.982,25.373 C19.582,25.46 21.143,25.748 22.633,26.249 C21.762,28.313 20.614,30.204 19.202,31.82 C18.8,31.88 18.394,31.924 17.982,31.95 L17.982,31.95 Z M29.263,28.754 C32.191,25.7 34,21.565 34,17 C34,8.647 27.971,1.717 20.031,0.285 C20.022,0.284 20.014,0.282 20.005,0.281 C19.028,0.107 18.027,0 17,0 C7.611,0 0,7.611 0,17 C0,21.582 1.821,25.733 4.769,28.79 C4.78,28.806 4.782,28.825 4.794,28.841 C4.822,28.877 4.862,28.896 4.894,28.927 C7.977,32.056 12.26,34 17,34 C21.719,34 25.987,32.075 29.068,28.969 C29.116,28.927 29.175,28.902 29.216,28.849 C29.239,28.82 29.244,28.785 29.263,28.754 L29.263,28.754 Z" id="Icon"></path>
                    </g>
                </g>
            </g>
        </g>
    </g>
</svg>