<?xml version="1.0" encoding="UTF-8" standalone="no"?>
<svg width="38px" height="23px" viewBox="0 0 38 23" version="1.1" xmlns="http://www.w3.org/2000/svg" xmlns:xlink="http://www.w3.org/1999/xlink">
    <!-- Generator: Sketch 41.2 (35397) - http://www.bohemiancoding.com/sketch -->
    <title>ico-feature-cloud</title>
    <desc>Created with Sketch.</desc>
    <defs></defs>
    <g id="Landing-Page-1" stroke="none" stroke-width="1" fill="none" fill-rule="evenodd">
        <g id="Mlocum---Doctors---Homepage" transform="translate(-376.000000, -2844.000000)" fill="#DDDDDD">
            <g id="Groups" transform="translate(0.000000, -3.000000)">
                <g id="Features" transform="translate(0.000000, 2067.000000)">
                    <g id="Track" transform="translate(135.000000, 780.000000)">
                        <path d="M270.599522,21.034104 L248.564673,21.034104 C245.481965,21.034104 242.973565,18.5354502 242.973565,15.4647207 C242.973565,12.3939912 245.481965,9.89533741 248.564673,9.89533741 C249.58698,9.89533741 250.593498,10.1794094 251.473707,10.716099 C251.788491,10.9087568 252.183204,10.9087568 252.498974,10.7200308 C252.814745,10.5293389 252.997299,10.1813753 252.974603,9.81473567 L252.966709,9.70366255 C252.957828,9.58275995 252.948947,9.4608744 252.948947,9.3380059 C252.948947,5.27253301 256.269469,1.96589598 260.349814,1.96589598 C263.547976,1.96589598 266.300112,3.97897346 267.321431,6.93076627 C264.313719,8.20466687 262.200031,11.1771016 262.200031,14.6321638 C262.200031,15.175734 262.64211,15.6151118 263.186813,15.6151118 C263.732504,15.6151118 264.173596,15.175734 264.173596,14.6321638 C264.173596,11.1023975 267.055987,8.23218941 270.599522,8.23218941 C274.143057,8.23218941 277.026435,11.1023975 277.026435,14.6321638 C277.026435,18.16193 274.143057,21.034104 270.599522,21.034104 M270.599522,6.26629343 C270.137708,6.26629343 269.687735,6.31347493 269.245657,6.38523014 C267.984549,2.58613616 264.440027,0 260.349814,0 C255.518528,0 251.52798,3.66049831 251.028669,8.34424548 C250.237269,8.07098594 249.405412,7.92944143 248.564673,7.92944143 C244.392558,7.92944143 241,11.3088166 241,15.4647207 C241,19.6206248 244.392558,23 248.564673,23 L270.599522,23 C275.231478,23 279,19.2471046 279,14.6321638 C279,10.0191889 275.231478,6.26629343 270.599522,6.26629343" id="ico-feature-cloud"></path>
                    </g>
                </g>
            </g>
        </g>
    </g>
</svg>