<?xml version="1.0" encoding="UTF-8" standalone="no"?>
<svg width="38px" height="34px" viewBox="0 0 38 34" version="1.1" xmlns="http://www.w3.org/2000/svg" xmlns:xlink="http://www.w3.org/1999/xlink">
    <!-- Generator: Sketch 41.2 (35397) - http://www.bohemiancoding.com/sketch -->
    <title>ico-feature-devise</title>
    <desc>Created with Sketch.</desc>
    <defs></defs>
    <g id="Landing-Page-1" stroke="none" stroke-width="1" fill="none" fill-rule="evenodd">
        <g id="Mlocum---Doctors---Homepage" transform="translate(-1026.000000, -2458.000000)" fill="#DDDDDD">
            <g id="Groups" transform="translate(0.000000, -3.000000)">
                <g id="Features" transform="translate(0.000000, 2067.000000)">
                    <g id="Trainees" transform="translate(1026.000000, 394.000000)">
                        <path d="M7.5,22.0001 L7.5,32 C7.5,33.105 8.395,34 9.5,34 L27.5,34 C28.605,34 29.5,33.105 29.5,32 L29.5,29 L36,29 C37.105,29 38,28.105 38,27 L38,9 C38,7.895 37.105,7 36,7 L29.5,7 L29.5,2 C29.5,0.895 28.605,0 27.5,0 L9.5,0 C8.395,0 7.5,0.895 7.5,2 L7.5,7.0001 L2,7.0001 C0.895,7.0001 0,7.8951 0,9.0001 L0,20.0001 C0,21.1051 0.895,22.0001 2,22.0001 L7.5,22.0001 Z M9.5,22.0001 L9.5,32 L27.5,32 L27.5,2 L9.5,2 L9.5,7.0001 L13,7.0001 C14.105,7.0001 15,7.8951 15,9.0001 L15,20.0001 C15,21.1051 14.105,22.0001 13,22.0001 L9.5,22.0001 Z M29.5,9 L36,9 L36,27 L29.5,27 L29.5,9 Z M13,20.0001 L2,20.0001 L2,9.0001 L13,9.0001 L13,20.0001 Z" id="ico-feature-devise"></path>
                    </g>
                </g>
            </g>
        </g>
    </g>
</svg>